Simulation
nRows=42
nColumns=15
endheader
time  TH_x TH_y TH_z SC_y  SC_z  SC_x  AC_y  AC_z  AC_x  GH_y  GH_z  GH_yy  EL_x  PS_y
1.4450000000000003  0.000000  0.000000  0.000000  -64.39670511774312  15.333288848700896  59.08529128991692  54.93663964568933  -10.596161557289266  0.05973936957530593  2.6710305324222374  43.52665769046553  -4.914333276676265  17.032105723556263  120.000000
1.4739000000000002  0.000000  0.000000  0.000000  -64.65294240328254  15.295856665410298  59.089307199337384  55.15175859844835  -10.337835987038817  0.4930508845453571  2.644781107145858  43.635837415079926  -4.883071054797674  16.96707416884617  120.000000
1.5028000000000004  0.000000  0.000000  0.000000  -64.804360487284  15.25687563416754  59.091283975008594  55.28744484937163  -10.1820486771429  0.739642474236112  2.674273613699016  43.6541385062911  -4.956214268187986  16.916966272551655  120.000000
1.5317000000000003  0.000000  0.000000  0.000000  -64.85515527584987  15.218932785516904  59.09316413979366  55.34176641977312  -10.131477047087255  0.7974885459651574  2.77062242256502  43.56737479793715  -5.153980971760806  16.87912169447496  120.000000
1.5606000000000002  0.000000  0.000000  0.000000  -64.81001548698949  15.184959694294449  59.09492892531981  55.313345833260556  -10.187851629703784  0.6669137964100389  2.9401185487247603  43.36574699699435  -5.47984415608312  16.851402651908966  120.000000
1.5895000000000004  0.000000  0.000000  0.000000  -64.67326816871133  15.15832486871225  59.09536699569516  55.200816088528  -10.352375996071473  0.34998652048891354  3.183256000034838  43.04428522337164  -5.920197165613374  16.832821454203593  120.000000
1.6184000000000003  0.000000  0.000000  0.000000  -64.44894938363097  15.139839675454164  59.09816041772388  55.00333586927078  -10.625373375681114  -0.1512538977996851  3.493991234005999  42.59845282582194  -6.448658929217521  16.82338512957146  120.000000
1.6473000000000002  0.000000  0.000000  0.000000  -64.13867121400234  15.129292714643743  59.09083622906117  54.720126391460184  -10.994007918526895  -0.8280487503057385  3.863394112377865  42.02898120534062  -7.033472661860296  16.825041586846808  120.000000
1.6762000000000004  0.000000  0.000000  0.000000  -63.73992560696938  15.127338041497971  59.01903319823245  54.35209232110907  -11.419784544859002  -1.6550323576268742  4.283858813050462  41.35045841891895  -7.646163354082155  16.84191041229742  120.000000
1.7051000000000003  0.000000  0.000000  0.000000  -63.25053371195149  15.130200461859763  58.8189678832045  53.904871373889016  -11.855607396020444  -2.5992859367567487  4.74784234795317  40.58236724977414  -8.266019269395349  16.87740060479092  120.000000
1.7340000000000004  0.000000  0.000000  0.000000  -62.67360964261425  15.12606314876229  58.45129625507737  53.39116996946576  -12.263635831544635  -3.629789476982464  5.24562628321972  39.73918326927372  -8.881446498282921  16.931420438630628  120.000000
1.7629000000000004  0.000000  0.000000  0.000000  -62.01749684509303  15.0977310055365  57.89714582429663  52.8303777040245  -12.617363509520978  -4.717266590798715  5.767424815530905  38.83542755770303  -9.488897893198397  17.00002571426173  120.000000
1.7918000000000003  0.000000  0.000000  0.000000  -61.29375824456357  15.026650490028272  57.15365597610493  52.24392123996823  -12.900996543629846  -5.835187347656346  6.305027327329072  37.887181136989085  -10.08878142631713  17.076345125102737  120.000000
1.8207000000000004  0.000000  0.000000  0.000000  -60.51543965055708  14.895686001927498  56.23262177512761  51.65146443242043  -13.108038840210462  -6.961873868272118  6.8518007463772905  36.90990352187923  -10.681894179118544  17.151667557197154  120.000000
1.8496000000000004  0.000000  0.000000  0.000000  -59.69738379377726  14.690061130604665  55.156813826901896  51.06984598826549  -13.239094121557967  -8.081683074669659  7.40324234368055  35.91740435049142  -11.266855133225294  17.218163648507876  120.000000
1.8785000000000003  0.000000  0.000000  0.000000  -58.85615336905568  14.40275561626992  53.95815352406684  50.51118844083473  -13.30400024630153  -9.18360995516767  7.9545107198273195  34.91966799912823  -11.840782070568881  17.27070872898011  120.000000
1.9074000000000004  0.000000  0.000000  0.000000  -58.00817943583916  14.04064389462958  52.673913618757744  49.98106109575532  -13.325056034001651  -10.256306713079065  8.496470125018316  33.923915650411175  -12.402065616206611  17.30482713905737  120.000000
1.9363000000000004  0.000000  0.000000  0.000000  -57.16920886926294  13.619972972747917  51.340298209422  49.48220831240538  -13.328452358578685  -11.283662712065812  9.015223445287658  32.93422860264837  -12.951447113618169  17.316574525608488  120.000000
1.9652000000000003  0.000000  0.000000  0.000000  -56.3545265227528  13.156910884941665  49.974610424253974  49.01930092596424  -13.314610548396285  -12.237207650465919  9.499572199825254  31.942760292878525  -13.490166609011172  17.305768821090926  120.000000
1.9941000000000004  0.000000  0.000000  0.000000  -55.57854518476744  12.665977203439345  48.569805591482556  48.59991803208313  -13.252363776130402  -13.076429237478802  9.945497985163426  30.928742133034827  -14.017001019695067  17.275809105986784  120.000000
2.0230000000000006  0.000000  0.000000  0.000000  -54.85465171654933  12.164694175337338  47.108942275308365  48.23138505216592  -13.110474449989352  -13.760476696054205  10.352097146304128  29.873994911767756  -14.526974480428287  17.23048484424319  120.000000
2.0519000000000003  0.000000  0.000000  0.000000  -54.19546940791955  11.673927060756103  45.57662130809342  47.91660346558671  -12.875911939336666  -14.258284797443071  10.721566069175843  28.770837696742106  -15.012409098763083  17.17161507597892  120.000000
2.0808000000000004  0.000000  0.000000  0.000000  -53.609510414489606  11.21068341420928  43.964452418182354  47.6515408544019  -12.549223705215017  -14.558716983710495  11.06274246672787  27.619689877303614  -15.466360505027646  17.09876511351135  120.000000
2.1097000000000006  0.000000  0.000000  0.000000  -53.092523451683434  10.777758472556604  42.27819946198913  47.42092416717525  -12.137900643595504  -14.68784058563603  11.394445978430502  26.429149852706818  -15.886333213509387  17.013093982145083  120.000000
2.1386000000000003  0.000000  0.000000  0.000000  -52.62510844514324  10.36136159520081  40.547622324142594  47.19590333311421  -11.658093944868481  -14.717899624219248  11.75005440905865  25.214825278485662  -16.278695615831804  16.919483398691185  120.000000
2.1675000000000004  0.000000  0.000000  0.000000  -52.18811853196749  9.942024001676014  38.80631316032277  46.95118258223384  -11.126097465445264  -14.722741356680435  12.165202925846975  23.991116994829785  -16.662873847107065  16.819889026034822  120.000000
2.1964000000000006  0.000000  0.000000  0.000000  -51.776620681180056  9.504937400986265  37.064312289454186  46.68401219358684  -10.543234408375815  -14.728872414677102  12.660347698700537  22.76228100775153  -17.067675070440863  16.708854710811796  120.000000
2.2253000000000003  0.000000  0.000000  0.000000  -51.392963590928716  9.04228300290504  35.32482125835759  46.4023451323835  -9.90881802879642  -14.737636987467761  13.253113650882717  21.527007268493616  -17.52492568538121  16.58030991679667  120.000000
2.2542000000000004  0.000000  0.000000  0.000000  -51.04388364345236  8.55808480203334  33.57868542785338  46.121000652355505  -9.219148489575039  -14.722636223215142  13.958890784834434  20.278979770258367  -18.060134841403986  16.429737303097653  120.000000
2.2831000000000006  0.000000  0.000000  0.000000  -50.744825666624806  8.072103344062718  31.783068387972172  45.86839399184432  -8.455285802143822  -14.605667808180582  14.779539073805108  19.004316422606863  -18.684415177992793  16.248520250566493  120.000000
2.3120000000000003  0.000000  0.000000  0.000000  -50.50495449364252  7.60871752339201  29.89229298835538  45.66643367660847  -7.600073480855016  -14.309079853248818  15.717473101611166  17.692337809601  -19.39013069898553  16.030379359492223  120.000000
2.3409000000000004  0.000000  0.000000  0.000000  -50.311466728434056  7.182002365539623  27.881545121523573  45.51496905947309  -6.645009932262284  -13.8024224717909  16.78484811726076  16.343155219915566  -20.14912835860324  15.779915110347348  120.000000
2.3698000000000006  0.000000  0.000000  0.000000  -50.13573973009796  6.794580132044439  25.741953718265442  45.39991680890661  -5.587404805835265  -13.090559375763132  17.99419905444659  14.966819637971756  -20.919209144958188  15.506962803180944  120.000000
2.3987000000000003  0.000000  0.000000  0.000000  -49.94568254043714  6.44418914777137  23.47879976222579  45.30397285322224  -4.434632285422289  -12.193937325514854  19.35076811670704  13.57979097794144  -21.65581942543669  15.220446714945554  120.000000
2.4276000000000004  0.000000  0.000000  0.000000  -49.71378985013641  6.126800518880061  21.110036684563738  45.214132249389316  -3.203888414570812  -11.137186437942901  20.846823427991424  12.201576942412032  -22.321010024218296  14.928194871226957  120.000000
2.4565000000000006  0.000000  0.000000  0.000000  -49.423745465681364  5.836964856002002  18.665157200488135  45.12810114963015  -1.9189778475510002  -9.942868399680961  22.45780119986794  10.852138295383803  -22.891033234632502  14.637254558343544  120.000000
2.4854000000000003  0.000000  0.000000  0.000000  -49.073106081553206  5.569905028987044  16.18324716335843  45.05547008173671  -0.6067565921345145  -8.629662011746104  24.142853529447684  9.548800144421648  -23.358863521669317  14.355001622674118  120.000000
2.5143000000000004  0.000000  0.000000  0.000000  -48.67059640157203  5.324507992267669  13.709601967571384  45.013092907296816  0.7063410982731774  -7.214208658124535  25.850340671447473  8.303272991412259  -23.72985449259237  14.090696449364042  120.000000
2.5432000000000006  0.000000  0.000000  0.000000  -48.230865181272954  5.103627687147085  11.291354215893767  45.019128901434854  1.997610592114895  -5.715050124232677  27.5258956170687  7.121215635884819  -24.014956652919643  13.85614176640633  120.000000
2.5721000000000003  0.000000  0.000000  0.000000  -47.768970635842784  4.911854573740639  8.973218471691238  45.08714178378807  3.249566843448121  -4.156468237726732  29.119878936745526  6.004650165069774  -24.22402231416137  13.665693282089812  120.000000
2.6010000000000004  0.000000  0.000000  0.000000  -47.296526276802  4.752697307988822  6.793173340343607  45.222236481889546  4.4489090388514025  -2.5702528079170017  30.593436629007158  4.956735379031696  -24.36246957119491  13.534601988363445  120.000000
2.6299000000000006  0.000000  0.000000  0.000000  -46.82022652463691  4.627357585965138  4.77941546925522  45.4192023033544  5.583304181577053  -0.9937161198046977  31.92119667134282  3.9852521078725704  -24.432108682419234  13.475874647665945  120.000000
